<?xml version="1.0" standalone="no"?>
<!DOCTYPE svg PUBLIC "-//W3C//DTD SVG 20010904//EN"
 "http://www.w3.org/TR/2001/REC-SVG-20010904/DTD/svg10.dtd">
<svg version="1.0" xmlns="http://www.w3.org/2000/svg"
 width="700.000000pt" height="700.000000pt" viewBox="0 0 700.000000 700.000000"
 preserveAspectRatio="xMidYMid meet">
<metadata>
Created by potrace 1.11, written by Peter Selinger 2001-2013
</metadata>
<g transform="translate(0.000000,700.000000) scale(0.100000,-0.100000)"
fill="#000000" stroke="none">
<path d="M0 3500 l0 -3500 269 0 269 0 20 47 c11 27 40 91 65 143 24 52 54
118 67 145 12 28 42 91 65 140 23 50 53 113 65 140 56 123 437 950 481 1043
27 57 49 105 49 107 0 2 21 48 46 102 48 101 147 315 191 413 14 30 36 80 50
110 32 68 78 168 150 325 30 66 62 135 70 153 9 18 19 30 23 25 4 -4 52 -107
108 -228 147 -321 156 -341 202 -440 51 -108 143 -308 215 -465 29 -63 72
-155 95 -205 23 -49 77 -166 120 -260 43 -93 97 -210 120 -260 23 -49 83 -178
132 -285 124 -269 134 -291 189 -408 27 -57 49 -106 49 -108 0 -2 25 -55 55
-119 l54 -115 273 0 273 0 57 123 c31 67 97 210 146 317 50 107 111 239 136
293 25 55 46 100 46 102 0 1 22 49 49 106 27 57 86 185 131 284 46 99 105 227
131 284 27 57 49 105 49 106 0 2 25 55 55 119 30 63 55 117 55 119 0 3 24 56
54 118 30 63 76 164 104 224 27 61 71 154 96 208 25 55 46 101 46 103 0 2 27
60 60 129 32 69 71 153 86 188 15 34 31 66 36 71 4 5 24 -26 44 -70 19 -43 50
-110 69 -149 18 -38 56 -122 85 -185 29 -63 74 -162 101 -219 27 -57 49 -105
49 -107 0 -2 20 -45 44 -96 24 -51 56 -120 71 -153 33 -73 62 -137 126 -273
27 -57 49 -105 49 -107 0 -2 21 -47 46 -102 90 -192 129 -277 219 -473 29 -63
70 -151 91 -195 21 -44 38 -82 39 -85 0 -3 20 -45 43 -93 23 -49 42 -90 42
-92 0 -2 23 -52 51 -112 28 -59 68 -147 90 -195 21 -48 50 -110 64 -138 l25
-50 270 0 270 0 1 38 c0 20 0 1594 1 3497 l1 3460 -279 3 -279 2 -14 -32 c-8
-18 -34 -73 -57 -123 -23 -49 -78 -169 -122 -265 -44 -96 -98 -213 -120 -260
-22 -47 -74 -159 -115 -250 -41 -91 -93 -203 -115 -250 -22 -47 -62 -134 -90
-195 -28 -60 -67 -146 -87 -190 -21 -44 -78 -168 -127 -275 -50 -107 -104
-224 -120 -260 -17 -36 -68 -146 -113 -245 -117 -253 -153 -332 -182 -395 -15
-30 -36 -76 -48 -102 l-22 -47 -41 87 c-23 48 -55 119 -73 157 -17 39 -44 97
-59 130 -15 33 -69 148 -118 256 -50 108 -106 230 -125 270 -19 41 -47 101
-62 134 -54 119 -83 181 -125 270 -23 50 -51 110 -62 135 -11 25 -35 77 -53
115 -18 39 -47 102 -65 140 -18 39 -61 131 -95 205 -34 74 -101 218 -148 320
-46 102 -101 221 -122 265 -20 44 -64 139 -97 210 -33 72 -67 145 -75 163
l-15 32 -283 0 -282 0 -28 -62 c-15 -35 -50 -110 -76 -167 -27 -57 -49 -104
-49 -106 0 -2 -22 -49 -49 -106 -26 -57 -60 -129 -73 -159 -14 -30 -39 -84
-56 -120 -103 -222 -122 -263 -122 -265 0 -2 -22 -49 -49 -106 -26 -57 -111
-241 -189 -409 -77 -168 -163 -354 -191 -414 -28 -59 -51 -110 -51 -111 0 -2
-27 -60 -60 -130 -33 -70 -60 -128 -60 -130 0 -1 -22 -49 -49 -106 -68 -146
-201 -439 -212 -467 -5 -13 -12 -21 -16 -18 -12 7 -55 95 -133 271 -10 22 -39
84 -64 138 -25 54 -46 99 -46 101 0 2 -24 55 -54 117 -51 108 -127 273 -306
664 -43 94 -105 228 -139 299 -34 70 -61 130 -61 132 0 2 -21 48 -46 101 -47
101 -56 119 -142 308 -28 61 -69 150 -92 200 -23 49 -53 114 -67 145 -38 82
-56 122 -122 265 l-61 130 -270 3 -270 2 0 -3500z m3802 2235 c132 -286 253
-549 270 -585 17 -36 42 -90 55 -120 35 -78 68 -149 129 -279 30 -62 54 -115
54 -117 0 -2 25 -56 55 -120 30 -64 55 -118 55 -119 0 -3 187 -410 290 -630
119 -256 117 -250 106 -275 -6 -14 -30 -68 -54 -120 -24 -52 -136 -295 -249
-540 -113 -245 -221 -479 -240 -520 -46 -98 -144 -311 -173 -375 -12 -27 -44
-97 -71 -153 -27 -57 -49 -105 -49 -107 0 -1 -29 -64 -65 -140 -36 -75 -65
-138 -65 -140 0 -3 -16 -40 -37 -82 -20 -43 -100 -217 -179 -386 -78 -170
-144 -310 -146 -312 -2 -2 -46 89 -98 203 -52 114 -120 263 -152 330 -32 68
-58 125 -58 127 0 1 -25 55 -55 119 -30 64 -55 118 -55 120 0 2 -24 55 -54
117 -51 109 -74 159 -136 294 -15 33 -42 90 -59 128 -44 95 -89 193 -119 257
-13 30 -54 118 -90 195 -96 209 -122 265 -147 320 -12 28 -36 79 -53 115 -17
36 -82 177 -145 314 l-114 249 84 181 c47 100 94 201 105 226 11 25 75 162
141 305 66 143 133 289 149 325 17 36 43 92 58 125 15 33 53 116 85 185 31 69
79 172 106 228 27 57 49 106 49 108 0 2 21 47 46 101 25 54 65 141 89 193 23
52 66 144 94 204 28 59 51 110 51 111 0 2 29 65 65 140 36 75 65 138 65 140 0
2 22 51 49 107 26 57 60 130 75 163 l28 60 35 -75 c19 -41 143 -309 275 -595z
m-3189 -90 c110 -241 145 -317 221 -478 25 -55 46 -100 46 -102 0 -1 20 -45
44 -96 24 -52 57 -123 73 -159 40 -87 85 -183 144 -308 27 -57 49 -105 49
-107 0 -2 18 -41 39 -87 21 -46 62 -132 90 -192 28 -59 51 -110 51 -111 0 -3
28 -63 113 -245 16 -36 49 -106 72 -157 l43 -91 -55 -119 c-30 -65 -65 -140
-78 -168 -35 -77 -273 -592 -307 -665 -17 -36 -41 -87 -53 -115 -13 -27 -46
-99 -74 -158 -28 -60 -51 -110 -51 -112 0 -1 -27 -60 -60 -129 -33 -70 -60
-128 -60 -131 0 -2 -22 -50 -49 -107 -59 -126 -97 -207 -168 -363 -31 -66 -60
-129 -66 -140 -6 -11 -12 -22 -12 -25 -2 -7 -20 -47 -44 -100 l-21 -45 0 2374
c0 1306 2 2372 4 2370 2 -2 51 -107 109 -234z m5868 -2107 c0 -1278 0 -2343
-1 -2368 0 -41 -26 11 -265 530 -146 316 -275 595 -287 620 -11 25 -32 70 -46
100 -13 30 -49 106 -78 169 -30 62 -54 115 -54 116 0 3 -25 56 -127 274 -19
41 -67 147 -108 235 -40 89 -87 190 -103 226 -27 57 -29 67 -17 90 7 14 22 45
33 70 11 25 39 86 62 135 43 91 178 384 400 865 141 307 157 341 219 475 26
55 119 256 206 447 88 190 162 345 163 343 2 -2 4 -1049 3 -2327z"/>
</g>
</svg>
