<?xml version="1.0" encoding="utf-8"?>
<!-- Generator: Adobe Illustrator 19.0.0, SVG Export Plug-In . SVG Version: 6.00 Build 0)  -->
<svg version="1.1" xmlns="http://www.w3.org/2000/svg" xmlns:xlink="http://www.w3.org/1999/xlink" x="0px" y="0px"
	 viewBox="0 0 283.5 283.5" xml:space="preserve">
<path d="M263.2,0h-1.5l-54.5,118.2L152.6,0h-21.8L76.3,118.2L21.8,0h-1.5H0v283.5h20.2h1.5l54.5-118.2l54.5,118.2
	h21.8l54.5-118.2l54.5,118.2h1.5h20.2V0H263.2z M20.2,239.6V43.8l45.2,97.9L20.2,239.6z M141.7,259.9L87.2,141.7l54.5-118.2
	l54.5,118.2L141.7,259.9z M218,141.7l45.2-97.9v195.8L218,141.7z"/>
<path  d="M262.4-0.5h-1.5l-54.5,118.2L151.8-0.5h-21.8L75.5,117.7L21-0.5h-1.5H-0.8V283h20.2H21l54.5-118.2L130.1,283
	h21.8l54.5-118.2L260.9,283h1.5h20.2V-0.5H262.4z M19.5,239.1V43.4l45.2,97.9L19.5,239.1z M141,259.4L86.4,141.2L141,23.1
	l54.5,118.2L141,259.4z M217.3,141.2l45.2-97.9v195.8L217.3,141.2z"/>
</svg>
