<?xml version="1.0" encoding="utf-8"?>
<!-- Generator: Adobe Illustrator 19.0.0, SVG Export Plug-In . SVG Version: 6.00 Build 0)  -->
<svg version="1.1" id="Capa_1" xmlns="http://www.w3.org/2000/svg" xmlns:xlink="http://www.w3.org/1999/xlink" x="0px" y="0px"
	 viewBox="-456 258.8 45.2 45.2" style="enable-background:new -456 258.8 45.2 45.2;" xml:space="preserve">
<g>
	<g>
		<path d="M-418,283.5c-0.3-0.1-0.6,0-0.9,0.2c-1,0.9-2.2,1.5-3.4,2c-1.2,0.5-2.5,0.7-3.9,0.7c-3.1,0-6-1.3-8-3.3
			c-2.1-2.1-3.3-4.9-3.3-8c0-1.3,0.2-2.6,0.6-3.8c0.4-1.2,1-2.4,1.9-3.3c0.3-0.4,0.3-1-0.2-1.4c-0.3-0.2-0.6-0.3-0.9-0.2
			c-3.3,0.9-6.2,2.9-8.2,5.5c-2,2.6-3.1,5.8-3.1,9.3c0,4.2,1.7,8,4.5,10.8s6.6,4.5,10.8,4.5c3.6,0,6.8-1.2,9.5-3.3
			c2.7-2.1,4.6-5.1,5.4-8.5C-417.2,284.2-417.5,283.6-418,283.5z"/>
	</g>
</g>
</svg>
