<?xml version="1.0" encoding="utf-8"?>
<!-- Generator: Adobe Illustrator 19.0.0, SVG Export Plug-In . SVG Version: 6.00 Build 0)  -->
<svg version="1.1" id="Capa_1" xmlns="http://www.w3.org/2000/svg" xmlns:xlink="http://www.w3.org/1999/xlink" x="0px" y="0px"
	 viewBox="-456 258.8 45.2 45.2" style="enable-background:new -456 258.8 45.2 45.2;" xml:space="preserve">
<path d="M-433.4,270.1c-6.2,0-11.3,5.1-11.3,11.3s5.1,11.3,11.3,11.3c6.2,0,11.3-5.1,11.3-11.3S-427.2,270.1-433.4,270.1z"/>
<path d="M-433.4,266.8c-1.2,0-2.2-1-2.2-2.2V261c0-1.2,1-2.2,2.2-2.2s2.2,1,2.2,2.2v3.5C-431.2,265.8-432.2,266.8-433.4,266.8z"/>
<path d="M-433.4,296.1c-1.2,0-2.2,1-2.2,2.2v3.5c0,1.2,1,2.2,2.2,2.2s2.2-1,2.2-2.2v-3.5C-431.2,297-432.2,296.1-433.4,296.1z"/>
<path d="M-423.1,271.1c-0.9-0.9-0.9-2.3,0-3.1l2.5-2.5c0.9-0.9,2.3-0.9,3.1,0c0.9,0.9,0.9,2.3,0,3.1l-2.5,2.5
	C-420.8,271.9-422.2,271.9-423.1,271.1z"/>
<path d="M-443.8,291.8c-0.9-0.9-2.3-0.9-3.1,0l-2.5,2.5c-0.9,0.9-0.9,2.3,0,3.1s2.3,0.9,3.1,0l2.5-2.5
	C-442.9,294-442.9,292.6-443.8,291.8z"/>
<path d="M-418.8,281.4c0-1.2,1-2.2,2.2-2.2h3.5c1.2,0,2.2,1,2.2,2.2s-1,2.2-2.2,2.2h-3.5C-417.8,283.6-418.8,282.6-418.8,281.4z"/>
<path d="M-448.1,281.4c0-1.2-1-2.2-2.2-2.2h-3.5c-1.2,0-2.2,1-2.2,2.2s1,2.2,2.2,2.2h3.5C-449,283.6-448.1,282.6-448.1,281.4z"/>
<path d="M-423.1,291.8c0.9-0.9,2.3-0.9,3.1,0l2.5,2.5c0.9,0.9,0.9,2.3,0,3.1s-2.3,0.9-3.1,0l-2.5-2.5
	C-423.9,294-423.9,292.6-423.1,291.8z"/>
<path d="M-443.8,271.1c0.9-0.9,0.9-2.3,0-3.1l-2.5-2.5c-0.9-0.9-2.3-0.9-3.1,0c-0.9,0.9-0.9,2.3,0,3.1l2.5,2.5
	C-446,271.9-444.6,271.9-443.8,271.1z"/>
</svg>
